# xmcd
#
# Track frame offsets:
#	150
#	14142
#	30618
#	43495
#	56681
#	75546
#	87956
#	102905
#	115897
#	128871
#	143446
#	156947
#	169063
#	186221
#	198608
#	211287
#
# Disc length: 2956 seconds
#
# Revision: 3
# Processed by: cddbd v1.5.2PL0 Copyright (c) Steve Scherf et al.
# Submitted via: audiograbber 1.83.01
#
DISCID=e20b8a10
DTITLE=Various Artist - The Greatest Country Album [Disc 1]
DYEAR=2004
DGENRE=Country
TTITLE0=Glen Campbell - Wichita Lineman
TTITLE1=Kenny Rogers - Lucille
TTITLE2=Willie Nelson - Crazy
TTITLE3=Crystal Gayle - Talking In Your Sleep
TTITLE4=Juice Newton - Angel Of The Morning
TTITLE5=Billie Jo Spears - What I've Got In Mind
TTITLE6=Asleep At The Wheel - Lay Down Sally
TTITLE7=Bobbie Gentry - I'll Never Fall In Love Again
TTITLE8=Barbara Montgomery - I Wish That I Could Fall In Love Today
TTITLE9=Dr Hook - A Little Bit More
TTITLE10=Slim Whitman - I'll Take You Home Again Kathleen
TTITLE11=George Jones (with The Jones Boys) - A Girl I Used To Know
TTITLE12=Nitty Gritty Dirt Band - All I Have To Do Is Dream
TTITLE13=Wanda Jackson - Swinging Doors
TTITLE14=Tex Ritter - High Noon (Do Not Forsake Me)
TTITLE15=Gail Davies - I'll Be There
EXTD=YEAR: 2004
EXTT0=
EXTT1=
EXTT2=
EXTT3=
EXTT4=
EXTT5=
EXTT6=
EXTT7=
EXTT8=
EXTT9=
EXTT10=
EXTT11=
EXTT12=
EXTT13=
EXTT14=
EXTT15=
PLAYORDER=
